<?xml version="1.0" encoding="UTF-8" standalone="no"?><svg xmlns="http://www.w3.org/2000/svg" xmlns:xlink="http://www.w3.org/1999/xlink" contentScriptType="application/ecmascript" contentStyleType="text/css" height="293px" preserveAspectRatio="none" style="width:128px;height:293px;background:#EEEBDC;" version="1.1" viewBox="0 0 128 293" width="128px" zoomAndPan="magnify"><defs><filter height="300%" id="fpaqh3g" width="300%" x="-1" y="-1"><feGaussianBlur result="blurOut" stdDeviation="2.0"/><feColorMatrix in="blurOut" result="blurOut2" type="matrix" values="0 0 0 0 0 0 0 0 0 0 0 0 0 0 0 0 0 0 .4 0"/><feOffset dx="4.0" dy="4.0" in="blurOut2" result="blurOut3"/><feBlend in="SourceGraphic" in2="blurOut3" mode="normal"/></filter></defs><g><!--entity mikrotik--><polygon fill="#FEFECE" filter="url(#fpaqh3g)" points="33.9848,144,43.9848,134,121.9848,134,121.9848,171.6094,111.9848,181.6094,33.9848,181.6094,33.9848,144" style="stroke: #000000; stroke-width: 1.5;"/><line style="stroke: #000000; stroke-width: 1.5;" x1="111.9848" x2="120.9848" y1="144" y2="135"/><line style="stroke: #000000; stroke-width: 1.5;" x1="33.9848" x2="111.9848" y1="144" y2="144"/><line style="stroke: #000000; stroke-width: 1.5;" x1="111.9848" x2="111.9848" y1="144" y2="181.6094"/><text fill="#000000" font-family="sans-serif" font-size="14" lengthAdjust="spacingAndGlyphs" textLength="48" x="48.9848" y="168.5332">mikrotik</text><!--entity pfsense--><polygon fill="#FEFECE" filter="url(#fpaqh3g)" points="32.9848,18,42.9848,8,122.9848,8,122.9848,45.6094,112.9848,55.6094,32.9848,55.6094,32.9848,18" style="stroke: #000000; stroke-width: 1.5;"/><line style="stroke: #000000; stroke-width: 1.5;" x1="112.9848" x2="121.9848" y1="18" y2="9"/><line style="stroke: #000000; stroke-width: 1.5;" x1="32.9848" x2="112.9848" y1="18" y2="18"/><line style="stroke: #000000; stroke-width: 1.5;" x1="112.9848" x2="112.9848" y1="18" y2="55.6094"/><text fill="#000000" font-family="sans-serif" font-size="14" lengthAdjust="spacingAndGlyphs" textLength="50" x="47.9848" y="42.5332">pfsense</text><!--entity ISP1--><ellipse cx="44.9848" cy="269" fill="#FEFECE" filter="url(#fpaqh3g)" rx="8" ry="8" style="stroke: #A80036; stroke-width: 2.0;"/><text fill="#000000" font-family="sans-serif" font-size="14" lengthAdjust="spacingAndGlyphs" textLength="29" x="30.4848" y="292.5332">ISP1</text><!--entity ISP2--><ellipse cx="111.9848" cy="269" fill="#FEFECE" filter="url(#fpaqh3g)" rx="8" ry="8" style="stroke: #A80036; stroke-width: 2.0;"/><text fill="#000000" font-family="sans-serif" font-size="14" lengthAdjust="spacingAndGlyphs" textLength="29" x="97.4848" y="292.5332">ISP2</text><path d="M31.0125,59.597 C22.1224,66.936 14.0347,75.754 8.9848,86 C0.369,103.482 12.9226,119.407 29.5828,131.724 " fill="none" style="stroke: #00BFFF; stroke-width: 1.0; stroke-dasharray: 7.0,7.0;"/><polygon fill="#00BFFF" points="33.8965,134.777,28.8604,126.3131,29.815,131.8888,24.2393,132.8435,33.8965,134.777" style="stroke: #00BFFF; stroke-width: 1.0;"/><polygon fill="#00BFFF" points="35.4314,56.113,25.887,58.5431,31.5047,59.2083,30.8395,64.8259,35.4314,56.113" style="stroke: #00BFFF; stroke-width: 1.0;"/><text fill="#000000" font-family="sans-serif" font-size="13" lengthAdjust="spacingAndGlyphs" textLength="107" x="9.9848" y="100.4951">IPSec/GRE/OSPF</text><path d="M106.562,60.195 C112.848,67.877 118.627,76.699 121.985,86 C127.607,101.575 119.46,117.382 108.708,130.114 " fill="none" style="stroke: #00BFFF; stroke-width: 1.0; stroke-dasharray: 7.0,7.0;"/><polygon fill="#00BFFF" points="105.3001,133.964,114.2605,129.8761,108.6141,130.22,108.2701,124.5736,105.3001,133.964" style="stroke: #00BFFF; stroke-width: 1.0;"/><polygon fill="#00BFFF" points="103.03,56.049,105.8214,65.494,106.2724,59.8552,111.9112,60.3062,103.03,56.049" style="stroke: #00BFFF; stroke-width: 1.0;"/><path d="M54.8585,186.427 C49.5942,194.214 44.7434,203.0293 41.9848,212 C37.7721,225.6996 38.4719,241.7857 40.2497,254.5277 " fill="none" style="stroke: #00BFFF; stroke-width: 1.0; stroke-dasharray: 7.0,7.0;"/><polygon fill="#00BFFF" points="41.0664,259.7671,43.6324,250.2584,40.2963,254.8268,35.7279,251.4906,41.0664,259.7671" style="stroke: #00BFFF; stroke-width: 1.0;"/><polygon fill="#00BFFF" points="57.815,182.212,49.3719,187.2829,54.9436,186.3053,55.9212,191.8771,57.815,182.212" style="stroke: #00BFFF; stroke-width: 1.0;"/><text fill="#000000" font-family="sans-serif" font-size="13" lengthAdjust="spacingAndGlyphs" textLength="25" x="42.9848" y="226.4951">eth1</text><path d="M86.0541,187.005 C92.0061,207.6621 99.9979,235.3982 105.5289,254.594 " fill="none" style="stroke: #00BFFF; stroke-width: 1.0; stroke-dasharray: 7.0,7.0;"/><polygon fill="#00BFFF" points="107.02,259.7688,108.3716,250.0131,105.6355,254.9643,100.6844,252.2282,107.02,259.7688" style="stroke: #00BFFF; stroke-width: 1.0;"/><polygon fill="#00BFFF" points="84.6211,182.032,83.2692,191.7876,86.0054,186.8366,90.9565,189.5728,84.6211,182.032" style="stroke: #00BFFF; stroke-width: 1.0;"/><text fill="#000000" font-family="sans-serif" font-size="13" lengthAdjust="spacingAndGlyphs" textLength="25" x="98.9848" y="226.4951">eth2</text></g></svg>